<svg width="20" height="20" viewBox="0 0 20 20" fill="none" xmlns="http://www.w3.org/2000/svg">
<path d="M2.54171 2.80081C1.23199 4.16123 1.50004 5.60637 1.50004 9.99665C1.50004 13.6425 0.863932 17.2973 4.1931 18.1578C5.23268 18.4251 14.4438 18.4251 15.482 18.1564C16.8681 17.7987 17.9959 16.6744 18.15 14.714C18.1716 14.4404 18.1716 5.55776 18.1493 5.27859C17.9855 3.1904 16.7 1.98693 15.0063 1.74318C14.6181 1.68693 14.5403 1.67026 12.5487 1.66679C5.48407 1.67026 3.93546 1.35568 2.54171 2.80081V2.80081Z" fill="url(#paint0_linear_1_2064)"/>
<path d="M9.83203 3.84652C7.3105 3.84652 4.91606 3.62221 4.00148 5.96943C3.6237 6.93888 3.67856 8.1979 3.67856 10.0007C3.67856 11.5826 3.62787 13.0694 4.00148 14.0312C4.91398 16.3798 7.32787 16.1548 9.83064 16.1548C12.2452 16.1548 14.7348 16.4062 15.6605 14.0312C16.039 13.0521 15.9834 11.8118 15.9834 10.0007C15.9834 7.59652 16.1161 6.04443 14.9501 4.87915C13.7695 3.6986 12.173 3.84652 9.82925 3.84652H9.83203ZM9.28064 4.95554C14.5404 4.94721 15.2098 4.36249 14.8404 12.4854C14.7091 15.3583 12.5216 15.043 9.83273 15.043C4.92995 15.043 4.78898 14.9028 4.78898 9.9979C4.78898 5.0361 5.17787 4.95832 9.28064 4.95415V4.95554ZM13.1168 5.97707C12.7091 5.97707 12.3786 6.30763 12.3786 6.71527C12.3786 7.1229 12.7091 7.45346 13.1168 7.45346C13.5244 7.45346 13.8549 7.1229 13.8549 6.71527C13.8549 6.30763 13.5244 5.97707 13.1168 5.97707V5.97707ZM9.83203 6.84026C8.08689 6.84026 6.67231 8.25554 6.67231 10.0007C6.67231 11.7458 8.08689 13.1604 9.83203 13.1604C11.5772 13.1604 12.9911 11.7458 12.9911 10.0007C12.9911 8.25554 11.5772 6.84026 9.83203 6.84026V6.84026ZM9.83203 7.94929C12.5438 7.94929 12.5473 12.0521 9.83203 12.0521C7.12092 12.0521 7.11675 7.94929 9.83203 7.94929Z" fill="white"/>
<defs>
<linearGradient id="paint0_linear_1_2064" x1="2.57367" y1="17.2689" x2="18.0636" y2="3.86261" gradientUnits="userSpaceOnUse">
<stop stop-color="#FFDD55"/>
<stop offset="0.5" stop-color="#FF543E"/>
<stop offset="1" stop-color="#C837AB"/>
</linearGradient>
</defs>
</svg>
